<?xml version="1.0" standalone="no"?>
<!DOCTYPE svg PUBLIC "-//W3C//DTD SVG 20010904//EN"
 "http://www.w3.org/TR/2001/REC-SVG-20010904/DTD/svg10.dtd">
<svg version="1.0" xmlns="http://www.w3.org/2000/svg"
 width="60.000000pt" height="60.000000pt" viewBox="0 0 60.000000 60.000000"
 preserveAspectRatio="xMidYMid meet">

<g transform="translate(0.000000,60.000000) scale(0.100000,-0.100000)"
fill="#000000" stroke="none">
<path d="M215 292 c-114 -39 -91 -133 38 -157 35 -7 37 -6 37 20 0 20 -4 25
-17 21 -55 -15 -88 -18 -77 -6 6 6 30 14 53 17 63 9 49 23 -24 23 -37 0 -65 4
-65 10 0 6 28 10 65 10 73 0 87 14 24 23 -23 3 -47 11 -53 17 -8 8 2 9 42 4
49 -6 52 -5 52 15 0 25 -9 25 -75 3z"/>
<path d="M310 290 c0 -21 3 -22 53 -16 39 5 49 4 41 -4 -6 -6 -30 -14 -53 -17
-63 -9 -49 -23 24 -23 37 0 65 -4 65 -10 0 -6 -28 -10 -65 -10 -73 0 -87 -14
-24 -23 23 -3 47 -11 53 -17 11 -12 -22 -9 -75 6 -12 3 -18 -3 -22 -22 -5 -26
-4 -26 36 -20 83 14 133 67 108 114 -11 21 -59 46 -108 57 -29 6 -33 4 -33
-15z"/>
<path d="M35 50 c4 -14 12 -29 17 -35 7 -7 8 -2 3 15 -4 14 -12 30 -17 35 -7
7 -8 2 -3 -15z"/>
<path d="M90 40 c0 -39 6 -39 12 0 3 16 1 30 -4 30 -4 0 -8 -13 -8 -30z"/>
<path d="M152 40 c0 -19 2 -29 5 -22 3 9 9 10 18 2 10 -8 12 -4 12 17 0 16 -2
22 -4 16 -7 -19 -21 -16 -26 5 -3 9 -5 1 -5 -18z"/>
<path d="M307 63 c-11 -10 -8 -45 3 -38 6 4 7 11 4 17 -4 6 0 14 7 19 8 5 9 9
3 9 -6 0 -14 -3 -17 -7z"/>
<path d="M430 40 c0 -17 5 -30 10 -30 6 0 10 13 10 30 0 17 -4 30 -10 30 -5 0
-10 -13 -10 -30z"/>
<path d="M502 40 c0 -19 2 -27 5 -17 2 9 2 25 0 35 -3 9 -5 1 -5 -18z"/>
<path d="M556 61 c-3 -4 3 -16 14 -26 11 -10 20 -13 20 -8 0 6 -7 14 -16 17
-8 3 -12 10 -9 16 3 5 4 10 1 10 -3 0 -7 -4 -10 -9z"/>
<path d="M222 40 c0 -14 2 -19 5 -12 2 6 2 18 0 25 -3 6 -5 1 -5 -13z"/>
<path d="M262 40 c0 -14 2 -19 5 -12 2 6 2 18 0 25 -3 6 -5 1 -5 -13z"/>
<path d="M361 43 c-1 -12 4 -25 9 -28 12 -7 12 2 0 30 -8 19 -9 19 -9 -2z"/>
</g>
</svg>
